<?xml version="1.0" encoding="UTF-8" standalone="no"?><svg xmlns="http://www.w3.org/2000/svg" xmlns:xlink="http://www.w3.org/1999/xlink" fill="#000000" height="682.1" preserveAspectRatio="xMidYMid meet" version="1" viewBox="0.0 659.0 2000.0 682.1" width="2000" zoomAndPan="magnify"><g><g id="change1_1"><path d="M1950,1341.1H179.6c-27.5,0-50-22.5-50-50V848.3c0-27.5,22.5-50,50-50H1950 c27.5,0,50,22.5,50,50v442.7C2000,1318.6,1977.5,1341.1,1950,1341.1z" fill="#ffd434"/></g><g><g id="change2_1"><path d="M1872.1,1253H101.6c-27.5,0-50-22.5-50-50V760.3c0-27.5,22.5-50,50-50h1770.4 c27.5,0,50,22.5,50,50V1203C1922.1,1230.5,1899.6,1253,1872.1,1253z" fill="#ffffff"/></g><g id="change3_1"><path d="M1868.3,1263.8H105.4c-35.6,0-64.5-29-64.5-64.5V764.1c0-35.6,29-64.5,64.5-64.5h1762.9 c35.6,0,64.5,29,64.5,64.5v435.2C1932.8,1234.8,1903.9,1263.8,1868.3,1263.8z M105.4,721c-23.7,0-43,19.3-43,43v435.2 c0,23.7,19.3,43,43,43h1762.9c23.7,0,43-19.3,43-43V764.1c0-23.7-19.3-43-43-43H105.4z" fill="#d0764b"/></g></g><g id="change3_2"><path d="M10.8,899.9c-5.9,0-10.8-4.8-10.8-10.8V723.5c0-35.6,29-64.5,64.5-64.5h549.1 c5.9,0,10.8,4.8,10.8,10.8c0,5.9-4.8,10.8-10.8,10.8H64.5c-23.7,0-43,19.3-43,43v165.6C21.5,895.1,16.7,899.9,10.8,899.9z" fill="#d0764b"/></g></g></svg>