<?xml version="1.0" encoding="UTF-8" standalone="no"?><svg xmlns="http://www.w3.org/2000/svg" xmlns:xlink="http://www.w3.org/1999/xlink" fill="#000000" height="784.8" preserveAspectRatio="xMidYMid meet" version="1" viewBox="0.0 0.0 1166.6 784.8" width="1166.6" zoomAndPan="magnify"><defs><clipPath id="a"><path d="M 0 78 L 1088 78 L 1088 784.78125 L 0 784.78125 Z M 0 78"/></clipPath><clipPath id="b"><path d="M 78 0 L 1166.640625 0 L 1166.640625 706 L 78 706 Z M 78 0"/></clipPath></defs><g><g clip-path="url(#a)" id="change1_1"><path d="M 755.34375 638.25 C 724.269531 605.125 693.988281 567.128906 662.714844 525.675781 C 612.367188 458.90625 559.511719 383.1875 496.816406 304.402344 C 490.417969 296.359375 483.914062 288.285156 477.304688 280.183594 C 452.546875 249.855469 427.542969 223.90625 402.628906 201.761719 C 197.988281 19.765625 0 93.824219 0 93.824219 C 162.902344 73.089844 286.335938 147.699219 393.722656 258.574219 L 331.832031 652.910156 L 442.125 652.910156 L 486.996094 366.984375 C 543.632812 439.21875 597.375 517.402344 652.503906 590.738281 C 658.101562 598.203125 663.730469 605.617188 669.371094 612.96875 C 680.457031 627.410156 691.683594 640.703125 703.007812 652.910156 C 883.929688 848.054688 1087.730469 768.902344 1087.730469 768.902344 C 941.996094 789.304688 845.402344 734.253906 755.34375 638.25" fill="#0f1819"/></g><g clip-path="url(#b)" id="change1_2"><path d="M 778.019531 493.773438 L 834.8125 131.867188 L 724.515625 131.867188 L 686.742188 372.546875 C 647.113281 318.464844 604.621094 260.550781 556.222656 201.269531 C 544.042969 186.347656 531.808594 172.484375 519.542969 159.621094 C 510.195312 149.800781 500.828125 140.566406 491.472656 131.867188 C 283.351562 -61.554688 78.917969 14.910156 78.917969 14.910156 C 217.089844 -2.671875 326.859375 48.328125 422.53125 131.867188 C 452.976562 158.441406 481.984375 188.316406 510.015625 220.320312 C 568.347656 286.886719 622.496094 362.6875 676.585938 437.257812 C 700.386719 470.050781 724.164062 502.617188 748.289062 534.050781 C 754.773438 542.503906 761.3125 550.566406 767.902344 558.238281 C 952.140625 773.304688 1166.640625 689.984375 1166.640625 689.984375 C 990.316406 714.667969 885.925781 628.902344 778.019531 493.773438" fill="#0f1819"/></g></g></svg>