<?xml version="1.0" encoding="UTF-8" standalone="no"?><svg xmlns="http://www.w3.org/2000/svg" xmlns:xlink="http://www.w3.org/1999/xlink" fill="#000000" height="349.9" preserveAspectRatio="xMidYMid meet" version="1" viewBox="34.5 342.9 1454.0 349.9" width="1454" zoomAndPan="magnify"><g id="change1_1"><rect fill="#adadad" height="304.258" rx="152.129" ry="152.129" width="1421.032" x="67.486" y="388.516"/></g><g><g id="change2_1"><rect fill="#8c52ff" height="304.258" rx="152.129" ry="152.129" width="1421.032" x="39.486" y="347.871"/></g><g id="change3_2"><path d="M1308.389,657.129H191.615c-86.641,0-157.129-70.488-157.129-157.129s70.488-157.129,157.129-157.129H1308.389c86.641,0,157.129,70.488,157.129,157.129s-70.488,157.129-157.129,157.129ZM191.615,352.871c-81.127,0-147.129,66.001-147.129,147.129s66.002,147.129,147.129,147.129H1308.389c81.127,0,147.129-66.001,147.129-147.129s-66.002-147.129-147.129-147.129H191.615Z"/></g></g><g><g id="change4_1"><rect fill="#ff5555" height="204.065" rx="102.032" ry="102.032" width="204.065" x="89.58" y="397.968"/></g><g id="change3_1"><path d="M191.612,607.032c-59.018,0-107.033-48.015-107.033-107.032s48.015-107.032,107.032-107.032,107.032,48.015,107.032,107.032-48.014,107.032-107.032,107.032Zm0-204.064c-53.504,0-97.033,43.528-97.033,97.032s43.528,97.032,97.032,97.032,97.032-43.528,97.032-97.032-43.528-97.032-97.032-97.032Z"/></g></g></svg>