<?xml version="1.0" encoding="UTF-8"?><svg xmlns="http://www.w3.org/2000/svg" xmlns:xlink="http://www.w3.org/1999/xlink" height="550.2" preserveAspectRatio="xMidYMid meet" version="1.0" viewBox="77.8 224.9 847.8 550.2" width="847.8" zoomAndPan="magnify"><g><g><g><path d="M541.3 719.1L529.3 712.2 101.8 465.4 89.8 458.5 77.8 465.4 89.8 472.3 517.3 719.1 529.3 726.1z" fill="#e0f4ff"/></g><g><path d="M335.3 768.1L323.3 761.2 174.7 675.4 162.7 668.5 150.7 675.4 162.7 682.4 311.2 768.1 323.3 775.1z" fill="#e0f4ff"/></g><g><path d="M187.8 415.8L101.8 465.4 89.8 472.3 77.8 465.4 89.8 458.5 175.8 408.8z" fill="#e0f4ff"/></g><g><path d="M514.1 557.3L502.1 564.2 498.4 562.1 492.3 558.5 490.1 557.2 489.2 556.7 350.6 476.8 347.6 475 341.3 471.4 257 422.7 269 415.8 353.3 464.4 359.7 468.1 362.6 469.8 501.2 549.8 502 550.3 504.3 551.6 510.4 555.1z" fill="#e0f4ff"/></g><g><path d="M914.4 488.1L902.4 481.2 714.8 372.9 702.8 366 690.8 372.9 702.8 379.9 890.4 488.2 902.4 495.1z" fill="#e0f4ff"/></g><g><path d="M135.5 685.9L146.3 679.7 146.3 679.7 198.4 649.6 429.1 516.4 417 509.5 189.1 641.1 184.8 643.6 175 649.2 146.8 665.5 137.2 671 131.6 674.3 124.5 678.4z" fill="#e0f4ff"/></g><g><path d="M783.5 303.8L783.5 317.7 764.3 328.7 757.4 332.7 752.8 335.4 751.9 335.9 743.7 340.7 738.2 343.8 732.7 347 731.2 347.9 726.7 350.5 725.8 351 723.1 352.5 721.9 353.2 712 358.9 712 358.9 706.6 362.1 701.7 364.9 700.5 365.6 697 367.6 695.8 368.3 692.2 370.4 681.2 376.7 681 376.8 675.5 380 670.8 382.8 666.1 385.5 650.2 394.6 451.3 509.5 439.2 502.5 640 386.6 664.3 372.6 669.7 369.5 670.9 368.8 690.4 357.5 695.1 354.8 695.3 354.7 700 352 700.6 351.6 721.2 339.8 721.4 339.6 725.8 337.1 726.1 336.9 731.6 333.7 751.9 322 752.2 321.8 757.4 318.8z" fill="#e0f4ff"/></g><g><path d="M529.3 726.1L541.3 719.1 679 639.7 667 632.7 529.3 712.2 517.3 719.1z" fill="#e0f4ff"/></g><g><path d="M914.4 488.1L902.4 495.1 799.9 554.3 787.9 561.2 775.9 554.3 787.9 547.3 890.4 488.2 902.4 481.2z" fill="#e0f4ff"/></g><g><path d="M323.3 775.1L335.3 768.1 458.6 696.9 446.6 690 323.3 761.2 311.2 768.1z" fill="#e0f4ff"/></g><g><g><g><g><g><g><path d="M496.6,674.7l0,9.7c0,4.8-2.6,9.7-7.7,13.8c-1.2,1-2.6,1.9-4.1,2.8c-1.3,0.7-2.6,1.4-4,2 c-15.1,6.7-36.6,6.5-51.3-0.8c-0.8-0.4-1.5-0.8-2.2-1.2c-2-1.1-3.7-2.4-5.2-3.6c-4.6-4-6.8-8.5-6.8-13.1l0-9.6 c0,4.6,2.3,9.2,6.9,13.2c1.5,1.2,3.1,2.4,5,3.5c0.8,0.4,1.5,0.9,2.3,1.2c14.6,7.2,35.9,7.5,51,0.9c1.5-0.6,2.8-1.3,4.2-2.1 c1.3-0.8,2.6-1.6,3.7-2.5C493.9,684.6,496.6,679.7,496.6,674.7z" fill="#0e6194"/></g><g><linearGradient gradientUnits="userSpaceOnUse" id="a" x1="415.32" x2="496.59" xlink:actuate="onLoad" xlink:show="other" xlink:type="simple" xmlns:xlink="http://www.w3.org/1999/xlink" y1="674.612" y2="674.612"><stop offset="0" stop-color="#009ffc"/><stop offset=".523" stop-color="#caecf5"/><stop offset="1" stop-color="#009ffc"/></linearGradient><path d="M488.5,688.8c-1.1,0.9-2.4,1.7-3.7,2.5c-1.4,0.8-2.8,1.5-4.3,2.2c-15,6.6-36.1,6.3-50.7-0.8 c-0.9-0.4-1.7-0.9-2.5-1.3c-2-1.1-3.7-2.4-5.2-3.7c-9.7-8.4-9-19.7,2-27.7c0.9-0.7,1.9-1.3,3-1.9c1.7-1,3.5-1.9,5.4-2.6 c13.3-5.4,30.9-5.7,44.7-0.8c2.6,0.9,5.1,2.1,7.4,3.4c0.5,0.3,1,0.6,1.5,0.9C499.2,667.3,500.1,679.9,488.5,688.8z" fill="url(#a)"/></g></g></g></g></g><g><path d="M476.5,665.1c-0.6-0.4-1.3-0.7-1.9-1l5.9-3.4l-2-1.2l-6.2,3.6c-10.2-4.1-22.8-3.4-32.3,2.1 c-10.3,5.9-10.4,12.9-3.1,18.4l-5.9,3.4l2,1.2l5.8-3.3c0.3,0.2,0.5,0.3,0.8,0.5c4.2,2.5,8.4,3.9,10.9,4.4l2.6-2.6 c-2.7-0.5-6.1-1.8-8.8-3.4c-0.6-0.3-1.2-0.7-1.7-1.1c-0.6-0.4-1.2-0.9-1.7-1.4c-4.7-4.4-3.2-9.3,4-13.4c7.6-4.4,16.2-5,23.5-2.5 c0.8,0.3,1.6,0.6,2.4,1c0.7,0.3,1.4,0.7,2.1,1.1c2.9,1.7,4.7,3.4,5.6,4.9l4.8-1.5C482.6,669.7,480.8,667.6,476.5,665.1z" fill="#fff"/></g></g><g><g><g><g><g><g><path d="M200.9,657.7l0,9.7c0,4.8-2.6,9.7-7.7,13.8c-1.2,1-2.6,1.9-4.1,2.8c-1.3,0.7-2.6,1.4-4,2 c-15.1,6.7-36.6,6.5-51.3-0.8c-0.8-0.4-1.5-0.8-2.2-1.2c-2-1.1-3.7-2.4-5.2-3.6c-4.6-4-6.8-8.5-6.8-13.1l0-9.6 c0,4.6,2.3,9.2,6.9,13.2c1.5,1.2,3.1,2.4,5,3.5c0.8,0.4,1.5,0.9,2.3,1.2c14.6,7.2,35.9,7.5,51,0.9c1.5-0.6,2.8-1.3,4.2-2.1 c1.3-0.8,2.6-1.6,3.7-2.5C198.2,667.6,200.9,662.7,200.9,657.7z" fill="#0e6194"/></g><g><linearGradient gradientUnits="userSpaceOnUse" id="b" x1="119.62" x2="200.89" xlink:actuate="onLoad" xlink:show="other" xlink:type="simple" xmlns:xlink="http://www.w3.org/1999/xlink" y1="657.588" y2="657.588"><stop offset="0" stop-color="#009ffc"/><stop offset=".523" stop-color="#caecf5"/><stop offset="1" stop-color="#009ffc"/></linearGradient><path d="M192.8,671.7 c-1.1,0.9-2.4,1.7-3.7,2.5c-1.4,0.8-2.8,1.5-4.3,2.2c-15,6.6-36.1,6.3-50.7-0.8c-0.9-0.4-1.7-0.9-2.5-1.3 c-2-1.1-3.7-2.4-5.2-3.7c-9.7-8.4-9-19.7,2-27.7c0.9-0.7,1.9-1.3,3-1.9c1.7-1,3.5-1.9,5.4-2.6c13.3-5.4,30.9-5.7,44.7-0.8 c2.6,0.9,5.1,2.1,7.4,3.4c0.5,0.3,1,0.6,1.5,0.9C203.5,650.3,204.4,662.8,192.8,671.7z" fill="url(#b)"/></g></g></g></g></g><g><path d="M180.8,648.1c-0.6-0.4-1.3-0.7-1.9-1l5.9-3.4l-2-1.2l-6.2,3.6c-10.2-4.1-22.8-3.4-32.3,2.1 c-10.3,5.9-10.4,12.9-3.1,18.4l-5.9,3.4l2,1.2l5.8-3.3c0.3,0.2,0.5,0.3,0.8,0.5c4.2,2.5,8.4,3.9,10.9,4.4l2.6-2.6 c-2.7-0.5-6.1-1.8-8.8-3.4c-0.6-0.3-1.2-0.7-1.7-1.1c-0.6-0.4-1.2-0.9-1.7-1.4c-4.7-4.4-3.2-9.3,4-13.4c7.6-4.4,16.2-5,23.5-2.5 c0.8,0.3,1.6,0.6,2.4,1c0.7,0.3,1.4,0.7,2.1,1.1c2.9,1.7,4.7,3.4,5.6,4.9l4.8-1.5C186.9,652.7,185.1,650.6,180.8,648.1z" fill="#fff"/></g></g><g><g><g><g><g><g><g><g><path d="M393.7,319.9l3.8-2.2c0.9-0.5,2.1-0.4,3.4,0.3l-3.8,2.2C395.7,319.5,394.5,319.4,393.7,319.9z" fill="#209ef2"/></g><g><path d="M552.6 415.5L556.4 413.3 556.1 528 552.3 530.2z" fill="#0c598b"/></g><g><path d="M397.1 320.2L400.8 318 551.7 405.1 547.9 407.3z" fill="#209ef2"/></g><g><linearGradient gradientTransform="translate(-1126.204)" gradientUnits="userSpaceOnUse" id="c" x1="1677.929" x2="1679.76" xlink:actuate="onLoad" xlink:show="other" xlink:type="simple" xmlns:xlink="http://www.w3.org/1999/xlink" y1="408.505" y2="412.166"><stop offset="0" stop-color="#209ef2"/><stop offset="1" stop-color="#0c598b"/></linearGradient><path d="M547.9,407.3l3.8-2.2 c2.6,1.5,4.8,5.2,4.8,8.2l-3.8,2.2C552.6,412.5,550.5,408.8,547.9,407.3z" fill="url(#c)"/></g><g><path d="M547.9,407.3c2.6,1.5,4.8,5.2,4.8,8.2l-0.3,114.6L392,437.6l0.3-114.6c0-3,2.1-4.2,4.8-2.7 L547.9,407.3z" fill="#1076ba"/></g></g></g><g><path d="M397.5,436.4V326.9c0-1.1,0.7-1.6,1.5-1.1l148.4,85.7c0.8,0.5,1.5,1.7,1.5,2.8v109.4L397.5,436.4z" fill="#fff"/></g></g><g><g><g><g><path d="M293.6,501.7l0-4.3c0,1,0.6,2,1.9,2.7l0,4.3C294.3,503.7,293.6,502.7,293.6,501.7z" fill="#5dbaf6"/></g><g><path d="M549.8 529L549.8 533.3 528 546 516 552.9 452.7 589.8 452.7 585.5 512.3 550.8 524.3 543.8z" fill="#5dbaf6"/></g><g><path d="M443.4 585.5L443.4 589.8 295.6 504.4 295.6 500.1z" fill="#5dbaf6"/></g><g><path d="M452.7,585.5l0,4.3c-2.6,1.5-6.7,1.5-9.3,0l0-4.3C445.9,587,450.1,587,452.7,585.5z" fill="#5dbaf6"/></g><g><path d="M549.8,529l-97.1,56.4c-2.6,1.5-6.7,1.5-9.3,0l-147.8-85.3c-2.6-1.5-2.6-3.9,0-5.4l97.1-56.4 L549.8,529z" fill="#1076ba"/></g></g></g><g><path d="M540.6,527.4L450,579.7c-0.9,0.5-2.2,0.6-3,0.1l-141.9-81.9c-0.8-0.4-0.7-1.2,0.2-1.7l90.6-52.3 L540.6,527.4z" fill="#e0f4ff"/></g><g><g><g><path d="M422.8 535.1L422.8 536.1 401.6 548.4 401.6 547.4z" fill="#37aaf4"/></g><g><path d="M401.6 547.4L401.6 548.4 357.1 522.7 357.1 521.7z" fill="#37aaf4"/></g><g><path d="M422.8 535.1L401.6 547.4 357.1 521.7 378.3 509.4z" fill="#82ccf8"/></g></g></g><g><g><g><path d="M533.2 527.9L533.2 528.9 478.2 560.9 478.2 559.9z" fill="#37aaf4"/></g><g><path d="M478.2 559.9L478.2 560.9 339.6 481 339.6 479.9z" fill="#37aaf4"/></g><g><path d="M533.2 527.9L478.2 559.9 339.6 479.9 394.7 447.9z" fill="#82ccf8"/></g></g></g></g></g></g></g></g><g><g><g><g><g><g><g><g><g><path d="M677,662.6L611.9,625c-4.1-2.4-3.6-6.5,1.1-9.2l128.2-74c4.7-2.7,11.9-3,16-0.7l65.1,37.6 c4.1,2.4,3.6,6.5-1.1,9.2l-128.2,74C688.2,664.7,681.1,665,677,662.6z" fill="#0e6194"/></g><g><path d="M785.6,608.4l-0.1-0.1c-0.5-0.3-0.5-0.8,0.1-1.2l22.4-12.9c0.6-0.3,1.5-0.4,2-0.1l0.1,0.1 c0.5,0.3,0.5,0.8-0.1,1.2l-22.4,12.9C787.1,608.6,786.2,608.7,785.6,608.4z"/></g><g><path d="M773.2,615.5l-0.1-0.1c-0.5-0.3-0.5-0.8,0.1-1.2l6.5-3.8c0.6-0.3,1.5-0.4,2-0.1l0.1,0.1c0.5,0.3,0.5,0.8-0.1,1.2 l-6.5,3.8C774.6,615.8,773.7,615.8,773.2,615.5z"/></g></g><g><path d="M787.3 567.2L777.1 561.3 779.7 559.8 789.9 565.7z" fill="#fff"/></g></g><linearGradient gradientTransform="translate(-2)" gradientUnits="userSpaceOnUse" id="d" x1="620.165" x2="815.346" xlink:actuate="onLoad" xlink:show="other" xlink:type="simple" xmlns:xlink="http://www.w3.org/1999/xlink" y1="602.625" y2="602.625"><stop offset=".004" stop-color="#9182c4"/><stop offset="1" stop-color="#486989"/></linearGradient><path d="M813.3,587.4l-0.9-0.5 c-0.1-0.1-0.2-0.1-0.3-0.2L743.4,547c-0.1-0.1-0.2-0.1-0.3-0.1l-0.9-0.5l-43.2,25l0,0l-80,46.2c-0.8,0.5-0.9,1.1-0.2,1.5 l68.8,39.7c0.7,0.4,1.9,0.3,2.7-0.1l99.1-57.2L813.3,587.4z" fill="url(#d)"/></g><linearGradient gradientUnits="userSpaceOnUse" id="e" x1="609.379" x2="689.189" xlink:actuate="onLoad" xlink:show="other" xlink:type="simple" xmlns:xlink="http://www.w3.org/1999/xlink" y1="645.429" y2="645.429"><stop offset="0" stop-color="#0c4d75"/><stop offset="1" stop-color="#0c5587"/></linearGradient><path d="M689.2,668.2v0.5 c0,0.9-0.5,1.7-1.2,2.1l-1.1,0.6c-0.3,0.2-0.5,0.3-0.8,0.4c-1.3,0.5-2.8,0.4-4.1-0.1c0,0-0.1,0-0.1,0l-0.4-0.2l-0.8-0.5 l-0.4-0.2l-8.4-4.8l-58.8-33.9c-2.1-1.2-3.7-4.4-3.7-7.1c0-0.4,0-0.8,0-1.4c0-0.6,0-1.3,0-2c0-0.8,0.1-1.5,0.3-2.1 c0,0,0,0,0,0c0.1-0.5,0.3-0.8,0.5-1c0.2-0.1,0.4-0.1,0.6,0l32.9,20.3l40.4,24.9l0.8,0.4l3.1,1.8 C688.7,666.6,689.2,667.4,689.2,668.2z" fill="url(#e)"/><linearGradient gradientUnits="userSpaceOnUse" id="f" x1="609.909" x2="693.497" xlink:actuate="onLoad" xlink:show="other" xlink:type="simple" xmlns:xlink="http://www.w3.org/1999/xlink" y1="646.965" y2="646.965"><stop offset="0" stop-color="#0c4d75"/><stop offset="1" stop-color="#0c5587"/></linearGradient><path d="M693.5,667c0,0.2-0.1,0.3-0.2,0.5 l-4.4,2.5l-1.2,0.7l-1.1,0.6c-0.3,0.2-0.5,0.3-0.8,0.4c-1.4,0.3-2.9,0.2-4.1-0.1c0,0-0.1,0-0.1,0c-0.4-0.1-0.8-0.3-1.2-0.5 l-8.7-5.2l-57.9-34.5l-2.6-1.6c-0.8-0.5-1.2-1.3-1.2-2.2l0-3c0-0.4,0.1-0.7,0.2-1c0.2-0.5,0.6-0.8,1-1.1l0.5-0.3 c0.8-0.4,1.7-0.4,2.5,0l3.8,2.3l25.5,14.2l42.5,23.7l2.2,1.2l5,2.8C693.4,666.7,693.5,666.8,693.5,667z" fill="url(#f)"/><linearGradient gradientUnits="userSpaceOnUse" id="g" x1="679.944" x2="825.234" xlink:actuate="onLoad" xlink:show="other" xlink:type="simple" xmlns:xlink="http://www.w3.org/1999/xlink" y1="627.249" y2="627.249"><stop offset="0" stop-color="#0c4d75"/><stop offset="1" stop-color="#0c5587"/></linearGradient><path d="M825.2,586.4c0,2.7-1.7,5.9-3.7,7.1 l-128.2,74l-4.4,2.5l-1.2,0.7l-1.1,0.6c-0.3,0.2-0.5,0.3-0.8,0.4c-1.3,0.5-2.8,0.4-4.1-0.1c-0.2-0.1-0.3-0.2-0.5-0.3 l-0.8-0.5c-0.2-0.1-0.4-0.4-0.4-0.7v-3.8c0-0.3,0.2-0.5,0.4-0.7l2.8-1.6l0.8-0.4l2.1-1.2L824,582.8c0.5-0.3,1-0.7,1-0.2 c0,0,0,0.1,0,0.1v0L825.2,586.4z" fill="url(#g)"/></g><g><path d="M813.3,587.4l-0.9-0.5c-0.1-0.1-0.2-0.1-0.3-0.2L743.4,547c-0.1-0.1-0.2-0.1-0.3-0.1l-0.9-0.5l-43.2,25 l0,0l-80,46.2c-0.8,0.5-0.9,1.1-0.2,1.5l68.8,39.7c0.7,0.4,1.9,0.3,2.7-0.1l99.1-57.2L813.3,587.4z" fill="#fff"/></g></g></g></g></g><g><g><g><g><g><path d="M230.2 368.7L204.1 353.6 204.1 323.4 230.2 338.5z" fill="#1280d4"/></g><g><path d="M230.2 338.5L204.1 323.4 230.2 308.4 256.3 323.4z" fill="#1b92e6"/></g><g><path d="M256.3 353.6L230.2 368.7 230.2 338.5 256.3 323.4z" fill="#035fb3"/></g></g><g><g><path d="M260.4 387.7L234.3 372.6 234.3 342.5 260.4 357.5z" fill="#1280d4"/></g><g><path d="M260.4 357.5L234.3 342.5 260.4 327.4 286.5 342.5z" fill="#1b92e6"/></g><g><path d="M286.5 372.6L260.4 387.7 260.4 357.5 286.5 342.5z" fill="#035fb3"/></g></g><g><g><path d="M200.3 386.9L174.2 371.8 174.2 341.7 200.3 356.7z" fill="#1280d4"/></g><g><path d="M200.3 356.7L174.2 341.7 200.3 326.6 226.4 341.7z" fill="#1b92e6"/></g><g><path d="M226.4 371.8L200.3 386.9 200.3 356.7 226.4 341.7z" fill="#035fb3"/></g></g><g><g><path d="M230.4 405.9L204.3 390.8 204.3 360.7 230.4 375.8z" fill="#1280d4"/></g><g><path d="M230.4 375.8L204.3 360.7 230.4 345.6 256.5 360.7z" fill="#1b92e6"/></g><g><path d="M256.5 390.8L230.4 405.9 230.4 375.8 256.5 360.7z" fill="#035fb3"/></g></g><g><g><path d="M170.5 405.6L144.4 390.5 144.4 360.3 170.5 375.4z" fill="#1280d4"/></g><g><path d="M170.5 375.4L144.4 360.3 170.5 345.3 196.7 360.3z" fill="#1b92e6"/></g><g><path d="M196.7 390.5L170.5 405.6 170.5 375.4 196.7 360.3z" fill="#035fb3"/></g></g><g><g><path d="M200.7 424.6L174.6 409.5 174.6 379.4 200.7 394.4z" fill="#1280d4"/></g><g><path d="M200.7 394.4L174.6 379.4 200.7 364.3 226.8 379.4z" fill="#1b92e6"/></g><g><path d="M226.8 409.5L200.7 424.6 200.7 394.4 226.8 379.4z" fill="#035fb3"/></g></g><g><g><g><path d="M291.9 405.8L265.8 390.7 265.8 360.5 291.9 375.6z" fill="#096dc1"/></g><g><path d="M291.9 375.6L265.8 360.5 291.9 345.5 318 360.5z" fill="#1484d8"/></g><g><path d="M318 390.7L291.9 405.8 291.9 375.6 318 360.5z" fill="#035fb3"/></g></g></g><g><g><path d="M261.2 424.6L235.1 409.5 235.1 379.3 261.2 394.4z" fill="#1280d4"/></g><g><path d="M261.2 394.4L235.1 379.3 261.2 364.3 287.3 379.3z" fill="#1b92e6"/></g><g><path d="M287.3 409.5L261.2 424.6 261.2 394.4 287.3 379.3z" fill="#035fb3"/></g></g><g><g><path d="M231.5 443.2L205.4 428.2 205.4 398 231.5 413.1z" fill="#1280d4"/></g><g><path d="M231.5 413.1L205.4 398 231.5 382.9 257.6 398z" fill="#1b92e6"/></g><g><path d="M257.6 428.2L231.5 443.2 231.5 413.1 257.6 398z" fill="#035fb3"/></g></g></g><g><g><g><path d="M230.3 332.3L204.2 317.2 204.2 287.1 230.3 302.1z" fill="#1280d4"/></g><g><path d="M230.3 302.1L204.2 287.1 230.3 272 256.4 287.1z" fill="#1b92e6"/></g><g><path d="M256.4 317.2L230.3 332.3 230.3 302.1 256.4 287.1z" fill="#035fb3"/></g></g><g><g><path d="M260.5 351.3L234.4 336.2 234.4 306.1 260.5 321.2z" fill="#1280d4"/></g><g><path d="M260.5 321.2L234.4 306.1 260.5 291 286.6 306.1z" fill="#1b92e6"/></g><g><path d="M286.6 336.2L260.5 351.3 260.5 321.2 286.6 306.1z" fill="#035fb3"/></g></g><g><g><path d="M200.4 350.5L174.3 335.4 174.3 305.3 200.4 320.3z" fill="#1280d4"/></g><g><path d="M200.4 320.3L174.3 305.3 200.4 290.2 226.5 305.3z" fill="#1b92e6"/></g><g><path d="M226.5 335.4L200.4 350.5 200.4 320.3 226.5 305.3z" fill="#035fb3"/></g></g><g><g><path d="M230.5 369.5L204.4 354.5 204.4 324.3 230.5 339.4z" fill="#1280d4"/></g><g><path d="M230.5 339.4L204.4 324.3 230.5 309.2 256.6 324.3z" fill="#1b92e6"/></g><g><path d="M256.6 354.5L230.5 369.5 230.5 339.4 256.6 324.3z" fill="#035fb3"/></g></g><g><g><path d="M170.7 369.2L144.5 354.1 144.5 324 170.7 339z" fill="#1280d4"/></g><g><path d="M170.7 339L144.5 324 170.7 308.9 196.8 324z" fill="#1b92e6"/></g><g><path d="M196.8 354.1L170.7 369.2 170.7 339 196.8 324z" fill="#035fb3"/></g></g><g><g><path d="M200.8 388.2L174.7 373.1 174.7 343 200.8 358.1z" fill="#1280d4"/></g><g><path d="M200.8 358.1L174.7 343 200.8 327.9 226.9 343z" fill="#1b92e6"/></g><g><path d="M226.9 373.1L200.8 388.2 200.8 358.1 226.9 343z" fill="#035fb3"/></g></g><g><g><g><path d="M292 369.4L265.9 354.3 265.9 324.2 292 339.2z" fill="#096dc1"/></g><g><path d="M292 339.2L265.9 324.2 292 309.1 318.1 324.2z" fill="#1484d8"/></g><g><path d="M318.1 354.3L292 369.4 292 339.2 318.1 324.2z" fill="#035fb3"/></g></g></g><g><g><path d="M261.3 388.2L235.2 373.1 235.2 343 261.3 358z" fill="#1280d4"/></g><g><path d="M261.3 358L235.2 343 261.3 327.9 287.4 343z" fill="#1b92e6"/></g><g><path d="M287.4 373.1L261.3 388.2 261.3 358 287.4 343z" fill="#035fb3"/></g></g><g><g><path d="M231.6 406.9L205.5 391.8 205.5 361.6 231.6 376.7z" fill="#1280d4"/></g><g><path d="M231.6 376.7L205.5 361.6 231.6 346.6 257.7 361.6z" fill="#1b92e6"/></g><g><path d="M257.7 391.8L231.6 406.9 231.6 376.7 257.7 361.6z" fill="#035fb3"/></g></g></g><g><g><g><path d="M230.3 296.4L204.2 281.3 204.2 251.2 230.3 266.3z" fill="#1280d4"/></g><g><path d="M230.3 266.3L204.2 251.2 230.3 236.1 256.4 251.2z" fill="#1b92e6"/></g><g><path d="M256.4 281.3L230.3 296.4 230.3 266.3 256.4 251.2z" fill="#035fb3"/></g></g><g><g><path d="M260.5 315.5L234.4 300.4 234.4 270.2 260.5 285.3z" fill="#1280d4"/></g><g><path d="M260.5 285.3L234.4 270.2 260.5 255.2 286.6 270.2z" fill="#1b92e6"/></g><g><path d="M286.6 300.4L260.5 315.5 260.5 285.3 286.6 270.2z" fill="#035fb3"/></g></g><g><g><path d="M200.4 314.6L174.3 299.6 174.3 269.4 200.4 284.5z" fill="#1280d4"/></g><g><path d="M200.4 284.5L174.3 269.4 200.4 254.4 226.5 269.4z" fill="#1b92e6"/></g><g><path d="M226.5 299.6L200.4 314.6 200.4 284.5 226.5 269.4z" fill="#035fb3"/></g></g><g><g><path d="M230.5 333.7L204.4 318.6 204.4 288.5 230.5 303.5z" fill="#1280d4"/></g><g><path d="M230.5 303.5L204.4 288.5 230.5 273.4 256.6 288.5z" fill="#1b92e6"/></g><g><path d="M256.6 318.6L230.5 333.7 230.5 303.5 256.6 288.5z" fill="#035fb3"/></g></g><g><g><path d="M170.7 333.3L144.5 318.2 144.5 288.1 170.7 303.2z" fill="#1280d4"/></g><g><path d="M170.7 303.2L144.5 288.1 170.7 273 196.8 288.1z" fill="#1b92e6"/></g><g><path d="M196.8 318.2L170.7 333.3 170.7 303.2 196.8 288.1z" fill="#035fb3"/></g></g><g><g><path d="M200.8 352.4L174.7 337.3 174.7 307.1 200.8 322.2z" fill="#1280d4"/></g><g><path d="M200.8 322.2L174.7 307.1 200.8 292.1 226.9 307.1z" fill="#1b92e6"/></g><g><path d="M226.9 337.3L200.8 352.4 200.8 322.2 226.9 307.1z" fill="#035fb3"/></g></g><g><g><g><path d="M292 333.5L265.9 318.5 265.9 288.3 292 303.4z" fill="#096dc1"/></g><g><path d="M292 303.4L265.9 288.3 292 273.2 318.1 288.3z" fill="#1484d8"/></g><g><path d="M318.1 318.5L292 333.5 292 303.4 318.1 288.3z" fill="#035fb3"/></g></g></g><g><g><path d="M261.3 352.3L235.2 337.2 235.2 307.1 261.3 322.2z" fill="#1280d4"/></g><g><path d="M261.3 322.2L235.2 307.1 261.3 292 287.4 307.1z" fill="#1b92e6"/></g><g><path d="M287.4 337.2L261.3 352.3 261.3 322.2 287.4 307.1z" fill="#035fb3"/></g></g><g><g><path d="M231.6 371L205.5 355.9 205.5 325.8 231.6 340.9z" fill="#1280d4"/></g><g><path d="M231.6 340.9L205.5 325.8 231.6 310.7 257.7 325.8z" fill="#1b92e6"/></g><g><path d="M257.7 355.9L231.6 371 231.6 340.9 257.7 325.8z" fill="#035fb3"/></g></g></g></g><g><g><g><g><g><g><path d="M273.2,284.9l0,9.7c0,4.8-2.6,9.7-7.7,13.8c-1.2,1-2.6,1.9-4.1,2.8c-1.3,0.7-2.6,1.4-4,2 c-15.1,6.7-36.6,6.5-51.3-0.8c-0.8-0.4-1.5-0.8-2.2-1.2c-2-1.1-3.7-2.4-5.2-3.6c-4.6-4-6.8-8.5-6.8-13.1l0-9.6 c0,4.6,2.3,9.2,6.9,13.2c1.5,1.2,3.1,2.4,5,3.5c0.8,0.4,1.5,0.9,2.3,1.2c14.6,7.2,35.9,7.5,51,0.9c1.5-0.6,2.8-1.3,4.2-2.1 c1.3-0.8,2.6-1.6,3.7-2.5C270.5,294.8,273.2,289.8,273.2,284.9z" fill="#0e6194"/></g><g><linearGradient gradientUnits="userSpaceOnUse" id="h" x1="191.951" x2="273.221" xlink:actuate="onLoad" xlink:show="other" xlink:type="simple" xmlns:xlink="http://www.w3.org/1999/xlink" y1="284.758" y2="284.758"><stop offset="0" stop-color="#009ffc"/><stop offset=".523" stop-color="#caecf5"/><stop offset="1" stop-color="#009ffc"/></linearGradient><path d="M265.1,298.9 c-1.1,0.9-2.4,1.7-3.7,2.5c-1.4,0.8-2.8,1.5-4.3,2.2c-15,6.6-36.1,6.3-50.7-0.8c-0.9-0.4-1.7-0.9-2.5-1.3 c-2-1.1-3.7-2.4-5.2-3.7c-9.7-8.4-9-19.7,2-27.7c0.9-0.7,1.9-1.3,3-1.9c1.7-1,3.5-1.9,5.4-2.6c13.3-5.4,30.9-5.7,44.7-0.8 c2.6,0.9,5.1,2.1,7.4,3.4c0.5,0.3,1,0.6,1.5,0.9C275.9,277.4,276.7,290,265.1,298.9z" fill="url(#h)"/></g></g></g></g></g><g><path d="M253.1,275.2c-0.6-0.4-1.3-0.7-1.9-1l5.9-3.4l-2-1.2l-6.2,3.6c-10.2-4.1-22.8-3.4-32.3,2.1 c-10.3,5.9-10.4,12.9-3.1,18.4l-5.9,3.4l2,1.2l5.8-3.3c0.3,0.2,0.5,0.3,0.8,0.5c4.2,2.5,8.4,3.9,10.9,4.4l2.6-2.6 c-2.7-0.5-6.1-1.8-8.8-3.4c-0.6-0.3-1.2-0.7-1.7-1.1c-0.6-0.4-1.2-0.9-1.7-1.4c-4.7-4.4-3.2-9.3,4-13.4c7.6-4.4,16.2-5,23.5-2.5 c0.8,0.3,1.6,0.6,2.4,1c0.7,0.3,1.4,0.7,2.1,1.1c2.9,1.7,4.7,3.4,5.6,4.9l4.8-1.5C259.3,279.9,257.4,277.7,253.1,275.2z" fill="#fff"/></g></g></g></g><g><g><g><g><g><path d="M693.5 357.5L667.4 342.4 667.4 312.2 693.5 327.3z" fill="#1280d4"/></g><g><path d="M693.5 327.3L667.4 312.2 693.5 297.2 719.6 312.2z" fill="#1b92e6"/></g><g><path d="M719.6 342.4L693.5 357.5 693.5 327.3 719.6 312.2z" fill="#035fb3"/></g></g><g><g><path d="M723.7 376.5L697.6 361.4 697.6 331.3 723.7 346.3z" fill="#1280d4"/></g><g><path d="M723.7 346.3L697.6 331.3 723.7 316.2 749.8 331.3z" fill="#1b92e6"/></g><g><path d="M749.8 361.4L723.7 376.5 723.7 346.3 749.8 331.3z" fill="#035fb3"/></g></g><g><g><path d="M663.5 375.7L637.4 360.6 637.4 330.5 663.5 345.5z" fill="#1280d4"/></g><g><path d="M663.5 345.5L637.4 330.5 663.5 315.4 689.6 330.5z" fill="#1b92e6"/></g><g><path d="M689.6 360.6L663.5 375.7 663.5 345.5 689.6 330.5z" fill="#035fb3"/></g></g><g><g><path d="M693.7 394.7L667.6 379.6 667.6 349.5 693.7 364.6z" fill="#1280d4"/></g><g><path d="M693.7 364.6L667.6 349.5 693.7 334.4 719.8 349.5z" fill="#1b92e6"/></g><g><path d="M719.8 379.6L693.7 394.7 693.7 364.6 719.8 349.5z" fill="#035fb3"/></g></g><g><g><path d="M633.8 394.4L607.7 379.3 607.7 349.1 633.8 364.2z" fill="#1280d4"/></g><g><path d="M633.8 364.2L607.7 349.1 633.8 334.1 659.9 349.1z" fill="#1b92e6"/></g><g><path d="M659.9 379.3L633.8 394.4 633.8 364.2 659.9 349.1z" fill="#035fb3"/></g></g><g><g><path d="M664 413.4L637.9 398.3 637.9 368.2 664 383.2z" fill="#1280d4"/></g><g><path d="M664 383.2L637.9 368.2 664 353.1 690.1 368.2z" fill="#1b92e6"/></g><g><path d="M690.1 398.3L664 413.4 664 383.2 690.1 368.2z" fill="#035fb3"/></g></g><g><g><g><path d="M755.2 394.6L729.1 379.5 729.1 349.4 755.2 364.4z" fill="#096dc1"/></g><g><path d="M755.2 364.4L729.1 349.4 755.2 334.3 781.3 349.4z" fill="#1484d8"/></g><g><path d="M781.3 379.5L755.2 394.6 755.2 364.4 781.3 349.4z" fill="#035fb3"/></g></g></g><g><g><path d="M724.5 413.4L698.4 398.3 698.4 368.1 724.5 383.2z" fill="#1280d4"/></g><g><path d="M724.5 383.2L698.4 368.1 724.5 353.1 750.6 368.1z" fill="#1b92e6"/></g><g><path d="M750.6 398.3L724.5 413.4 724.5 383.2 750.6 368.1z" fill="#035fb3"/></g></g><g><g><path d="M694.8 432L668.7 417 668.7 386.8 694.8 401.9z" fill="#1280d4"/></g><g><path d="M694.8 401.9L668.7 386.8 694.8 371.8 720.9 386.8z" fill="#1b92e6"/></g><g><path d="M720.9 417L694.8 432 694.8 401.9 720.9 386.8z" fill="#035fb3"/></g></g></g><g><g><g><path d="M693.6 321.1L667.5 306 667.5 275.9 693.6 290.9z" fill="#1280d4"/></g><g><path d="M693.6 290.9L667.5 275.9 693.6 260.8 719.7 275.9z" fill="#1b92e6"/></g><g><path d="M719.7 306L693.6 321.1 693.6 290.9 719.7 275.9z" fill="#035fb3"/></g></g><g><g><path d="M723.8 340.1L697.7 325 697.7 294.9 723.8 310z" fill="#1280d4"/></g><g><path d="M723.8 310L697.7 294.9 723.8 279.8 749.9 294.9z" fill="#1b92e6"/></g><g><path d="M749.9 325L723.8 340.1 723.8 310 749.9 294.9z" fill="#035fb3"/></g></g><g><g><path d="M663.6 339.3L637.5 324.2 637.5 294.1 663.6 309.2z" fill="#1280d4"/></g><g><path d="M663.6 309.2L637.5 294.1 663.6 279 689.7 294.1z" fill="#1b92e6"/></g><g><path d="M689.7 324.2L663.6 339.3 663.6 309.2 689.7 294.1z" fill="#035fb3"/></g></g><g><g><path d="M693.8 358.3L667.7 343.3 667.7 313.1 693.8 328.2z" fill="#1280d4"/></g><g><path d="M693.8 328.2L667.7 313.1 693.8 298 719.9 313.1z" fill="#1b92e6"/></g><g><path d="M719.9 343.3L693.8 358.3 693.8 328.2 719.9 313.1z" fill="#035fb3"/></g></g><g><g><path d="M633.9 358L607.8 342.9 607.8 312.8 633.9 327.8z" fill="#1280d4"/></g><g><path d="M633.9 327.8L607.8 312.8 633.9 297.7 660 312.8z" fill="#1b92e6"/></g><g><path d="M660 342.9L633.9 358 633.9 327.8 660 312.8z" fill="#035fb3"/></g></g><g><g><path d="M664.1 377L638 361.9 638 331.8 664.1 346.9z" fill="#1280d4"/></g><g><path d="M664.1 346.9L638 331.8 664.1 316.7 690.2 331.8z" fill="#1b92e6"/></g><g><path d="M690.2 361.9L664.1 377 664.1 346.9 690.2 331.8z" fill="#035fb3"/></g></g><g><g><g><path d="M755.3 358.2L729.2 343.1 729.2 313 755.3 328z" fill="#096dc1"/></g><g><path d="M755.3 328L729.2 313 755.3 297.9 781.4 313z" fill="#1484d8"/></g><g><path d="M781.4 343.1L755.3 358.2 755.3 328 781.4 313z" fill="#035fb3"/></g></g></g><g><g><path d="M724.6 377L698.5 361.9 698.5 331.8 724.6 346.8z" fill="#1280d4"/></g><g><path d="M724.6 346.8L698.5 331.8 724.6 316.7 750.7 331.8z" fill="#1b92e6"/></g><g><path d="M750.7 361.9L724.6 377 724.6 346.8 750.7 331.8z" fill="#035fb3"/></g></g><g><g><path d="M694.9 395.7L668.8 380.6 668.8 350.4 694.9 365.5z" fill="#1280d4"/></g><g><path d="M694.9 365.5L668.8 350.4 694.9 335.4 721 350.4z" fill="#1b92e6"/></g><g><path d="M721 380.6L694.9 395.7 694.9 365.5 721 350.4z" fill="#035fb3"/></g></g></g><g><g><g><path d="M693.6 285.2L667.5 270.2 667.5 240 693.6 255.1z" fill="#1280d4"/></g><g><path d="M693.6 255.1L667.5 240 693.6 224.9 719.7 240z" fill="#1b92e6"/></g><g><path d="M719.7 270.2L693.6 285.2 693.6 255.1 719.7 240z" fill="#035fb3"/></g></g><g><g><path d="M723.8 304.3L697.7 289.2 697.7 259 723.8 274.1z" fill="#1280d4"/></g><g><path d="M723.8 274.1L697.7 259 723.8 244 749.9 259z" fill="#1b92e6"/></g><g><path d="M749.9 289.2L723.8 304.3 723.8 274.1 749.9 259z" fill="#035fb3"/></g></g><g><g><path d="M663.6 303.4L637.5 288.4 637.5 258.2 663.6 273.3z" fill="#1280d4"/></g><g><path d="M663.6 273.3L637.5 258.2 663.6 243.2 689.7 258.2z" fill="#1b92e6"/></g><g><path d="M689.7 288.4L663.6 303.4 663.6 273.3 689.7 258.2z" fill="#035fb3"/></g></g><g><g><path d="M693.8 322.5L667.7 307.4 667.7 277.3 693.8 292.3z" fill="#1280d4"/></g><g><path d="M693.8 292.3L667.7 277.3 693.8 262.2 719.9 277.3z" fill="#1b92e6"/></g><g><path d="M719.9 307.4L693.8 322.5 693.8 292.3 719.9 277.3z" fill="#035fb3"/></g></g><g><g><path d="M633.9 322.1L607.8 307.1 607.8 276.9 633.9 292z" fill="#1280d4"/></g><g><path d="M633.9 292L607.8 276.9 633.9 261.8 660 276.9z" fill="#1b92e6"/></g><g><path d="M660 307.1L633.9 322.1 633.9 292 660 276.9z" fill="#035fb3"/></g></g><g><g><path d="M664.1 341.2L638 326.1 638 295.9 664.1 311z" fill="#1280d4"/></g><g><path d="M664.1 311L638 295.9 664.1 280.9 690.2 295.9z" fill="#1b92e6"/></g><g><path d="M690.2 326.1L664.1 341.2 664.1 311 690.2 295.9z" fill="#035fb3"/></g></g><g><g><g><path d="M755.3 322.3L729.2 307.3 729.2 277.1 755.3 292.2z" fill="#096dc1"/></g><g><path d="M755.3 292.2L729.2 277.1 755.3 262 781.4 277.1z" fill="#1484d8"/></g><g><path d="M781.4 307.3L755.3 322.3 755.3 292.2 781.4 277.1z" fill="#035fb3"/></g></g></g><g><g><path d="M724.6 341.1L698.5 326.1 698.5 295.9 724.6 311z" fill="#1280d4"/></g><g><path d="M724.6 311L698.5 295.9 724.6 280.8 750.7 295.9z" fill="#1b92e6"/></g><g><path d="M750.7 326.1L724.6 341.1 724.6 311 750.7 295.9z" fill="#035fb3"/></g></g><g><g><path d="M694.9 359.8L668.8 344.7 668.8 314.6 694.9 329.7z" fill="#1280d4"/></g><g><path d="M694.9 329.7L668.8 314.6 694.9 299.5 721 314.6z" fill="#1b92e6"/></g><g><path d="M721 344.7L694.9 359.8 694.9 329.7 721 314.6z" fill="#035fb3"/></g></g></g></g><g><g><g><g><g><g><path d="M736.5,273.7l0,9.7c0,4.8-2.6,9.7-7.7,13.8c-1.2,1-2.6,1.9-4.1,2.8c-1.3,0.7-2.6,1.4-4,2 c-15.1,6.7-36.6,6.5-51.3-0.8c-0.8-0.4-1.5-0.8-2.2-1.2c-2-1.1-3.7-2.4-5.2-3.6c-4.6-4-6.8-8.5-6.8-13.1l0-9.6 c0,4.6,2.3,9.2,6.9,13.2c1.5,1.2,3.1,2.4,5,3.5c0.8,0.4,1.5,0.9,2.3,1.2c14.6,7.2,35.9,7.5,51,0.9c1.5-0.6,2.8-1.3,4.2-2.1 c1.3-0.8,2.6-1.6,3.7-2.5C733.8,283.6,736.5,278.6,736.5,273.7z" fill="#0e6194"/></g><g><linearGradient gradientUnits="userSpaceOnUse" id="i" x1="655.226" x2="736.496" xlink:actuate="onLoad" xlink:show="other" xlink:type="simple" xmlns:xlink="http://www.w3.org/1999/xlink" y1="273.567" y2="273.567"><stop offset="0" stop-color="#009ffc"/><stop offset=".523" stop-color="#caecf5"/><stop offset="1" stop-color="#009ffc"/></linearGradient><path d="M728.4,287.7 c-1.1,0.9-2.4,1.7-3.7,2.5c-1.4,0.8-2.8,1.5-4.3,2.2c-15,6.6-36.1,6.3-50.7-0.8c-0.9-0.4-1.7-0.9-2.5-1.3 c-2-1.1-3.7-2.4-5.2-3.7c-9.7-8.4-9-19.7,2-27.7c0.9-0.7,1.9-1.3,3-1.9c1.7-1,3.5-1.9,5.4-2.6c13.3-5.4,30.9-5.7,44.7-0.8 c2.6,0.9,5.1,2.1,7.4,3.4c0.5,0.3,1,0.6,1.5,0.9C739.1,266.2,740,278.8,728.4,287.7z" fill="url(#i)"/></g></g></g></g></g><g><path d="M716.4,264c-0.6-0.4-1.3-0.7-1.9-1l5.9-3.4l-2-1.2l-6.2,3.6c-10.2-4.1-22.8-3.4-32.3,2.1 c-10.3,5.9-10.4,12.9-3.1,18.4l-5.9,3.4l2,1.2l5.8-3.3c0.3,0.2,0.5,0.3,0.8,0.5c4.2,2.5,8.4,3.9,10.9,4.4l2.6-2.6 c-2.7-0.5-6.1-1.8-8.8-3.4c-0.6-0.3-1.2-0.7-1.7-1.1c-0.6-0.4-1.2-0.9-1.7-1.4c-4.7-4.4-3.2-9.3,4-13.4c7.6-4.4,16.2-5,23.5-2.5 c0.8,0.3,1.6,0.6,2.4,1c0.7,0.3,1.4,0.7,2.1,1.1c2.9,1.7,4.7,3.4,5.6,4.9l4.8-1.5C722.5,268.7,720.7,266.6,716.4,264z" fill="#fff"/></g></g></g><g><g><g><g><g><g><path d="M763.3,594.4l-0.2,9.7c-0.1,4.8-2.7,9.6-7.9,13.7c-1.2,0.9-2.6,1.9-4.1,2.7c-1.3,0.7-2.6,1.4-4,2 c-15.2,6.5-36.7,6-51.2-1.5c-0.8-0.4-1.5-0.8-2.2-1.2c-1.9-1.2-3.7-2.4-5.1-3.7c-4.5-4-6.7-8.6-6.7-13.2l0.2-9.6 c-0.1,4.6,2.2,9.2,6.8,13.3c1.4,1.3,3.1,2.5,5,3.6c0.7,0.4,1.5,0.9,2.3,1.3c14.5,7.4,35.8,8,51,1.5c1.5-0.6,2.9-1.3,4.2-2.1 c1.4-0.8,2.6-1.6,3.7-2.4C760.5,604.3,763.2,599.4,763.3,594.4z" fill="#bd8a17"/></g><g><linearGradient gradientTransform="matrix(.9999 .01297 -.01297 .9999 14.762 -7.381)" gradientUnits="userSpaceOnUse" id="j" x1="675.034" x2="756.305" xlink:actuate="onLoad" xlink:show="other" xlink:type="simple" xmlns:xlink="http://www.w3.org/1999/xlink" y1="591.938" y2="591.938"><stop offset="0" stop-color="#fdc54a"/><stop offset=".523" stop-color="#f4f2dc"/><stop offset="1" stop-color="#fdc54a"/></linearGradient><path d="M755.1,608.4 c-1.1,0.9-2.4,1.7-3.7,2.4c-1.4,0.8-2.8,1.5-4.3,2.1c-15.1,6.4-36.2,5.8-50.7-1.5c-0.9-0.4-1.7-0.9-2.5-1.4 c-2-1.2-3.7-2.4-5.1-3.7c-9.6-8.6-8.8-19.8,2.4-27.7c0.9-0.7,1.9-1.3,3-1.9c1.7-1,3.5-1.8,5.4-2.6c13.3-5.2,31-5.3,44.7-0.2 c2.6,1,5.1,2.1,7.4,3.5c0.5,0.3,1,0.6,1.5,0.9C766.1,587,766.7,599.6,755.1,608.4z" fill="url(#j)"/></g></g></g></g></g><g><path d="M743.3,584.5c-0.6-0.4-1.2-0.7-1.9-1l6-3.4l-2-1.2l-6.3,3.5c-10.2-4.2-22.7-3.7-32.4,1.7 c-10.4,5.8-10.5,12.8-3.3,18.3l-6,3.4l2,1.2l5.8-3.3c0.3,0.2,0.5,0.3,0.8,0.5c4.2,2.5,8.3,4,10.8,4.5l2.7-2.6 c-2.7-0.6-6-1.9-8.8-3.5c-0.6-0.4-1.2-0.7-1.7-1.1c-0.6-0.5-1.2-0.9-1.7-1.4c-4.7-4.4-3.1-9.3,4.2-13.4c7.6-4.3,16.2-4.8,23.5-2.2 c0.8,0.3,1.6,0.6,2.4,1c0.7,0.3,1.4,0.7,2.1,1.1c2.9,1.7,4.7,3.5,5.5,5l4.8-1.4C749.4,589.2,747.6,587.1,743.3,584.5z" fill="#fff"/></g></g><g><g><g><g><g><g><path d="M922.2,484.8l-0.2,9.7c-0.1,4.8-2.7,9.6-7.9,13.7c-1.2,0.9-2.6,1.9-4.1,2.7c-1.3,0.7-2.6,1.4-4,2 c-15.2,6.5-36.7,6-51.2-1.5c-0.8-0.4-1.5-0.8-2.2-1.2c-1.9-1.2-3.7-2.4-5.1-3.7c-4.5-4-6.7-8.6-6.7-13.2l0.2-9.6 c-0.1,4.6,2.2,9.2,6.8,13.3c1.4,1.3,3.1,2.5,5,3.6c0.7,0.4,1.5,0.9,2.3,1.3c14.5,7.4,35.8,8,51,1.5c1.5-0.6,2.9-1.3,4.2-2.1 c1.4-0.8,2.6-1.6,3.7-2.4C919.4,494.6,922.1,489.7,922.2,484.8z" fill="#bd8a17"/></g><g><linearGradient gradientTransform="matrix(.9999 .01297 -.01297 .9999 14.762 -7.381)" gradientUnits="userSpaceOnUse" id="k" x1="832.5" x2="913.77" xlink:actuate="onLoad" xlink:show="other" xlink:type="simple" xmlns:xlink="http://www.w3.org/1999/xlink" y1="480.222" y2="480.222"><stop offset="0" stop-color="#fdc54a"/><stop offset=".523" stop-color="#f4f2dc"/><stop offset="1" stop-color="#fdc54a"/></linearGradient><path d="M914,498.7 c-1.1,0.9-2.4,1.7-3.7,2.4c-1.4,0.8-2.8,1.5-4.3,2.1c-15.1,6.4-36.2,5.8-50.7-1.5c-0.9-0.4-1.7-0.9-2.5-1.4 c-2-1.2-3.7-2.4-5.1-3.7c-9.6-8.6-8.8-19.8,2.4-27.7c0.9-0.7,1.9-1.3,3-1.9c1.7-1,3.5-1.8,5.4-2.6c13.3-5.2,31-5.3,44.7-0.2 c2.6,1,5.1,2.1,7.4,3.5c0.5,0.3,1,0.6,1.5,0.9C925,477.4,925.6,490,914,498.7z" fill="url(#k)"/></g></g></g></g></g><g><path d="M902.2,474.9c-0.6-0.4-1.2-0.7-1.9-1l6-3.4l-2-1.2l-6.3,3.5c-10.2-4.2-22.7-3.7-32.4,1.7 c-10.4,5.8-10.5,12.8-3.3,18.3l-6,3.4l2,1.2l5.8-3.3c0.3,0.2,0.5,0.3,0.8,0.5c4.2,2.5,8.3,4,10.8,4.5l2.7-2.6 c-2.7-0.6-6-1.9-8.8-3.5c-0.6-0.4-1.2-0.7-1.7-1.1c-0.6-0.5-1.2-0.9-1.7-1.4c-4.7-4.4-3.1-9.3,4.2-13.4c7.6-4.3,16.2-4.8,23.5-2.2 c0.8,0.3,1.6,0.6,2.4,1c0.7,0.3,1.4,0.7,2.1,1.1c2.9,1.7,4.7,3.5,5.5,5l4.8-1.4C908.3,479.6,906.5,477.4,902.2,474.9z" fill="#fff"/></g></g><g><g><g><g><g><g><path d="M496.2,426.3L496,436c-0.1,4.8-2.7,9.6-7.9,13.7c-1.2,0.9-2.6,1.9-4.1,2.7c-1.3,0.7-2.6,1.4-4,2 c-15.2,6.5-36.7,6-51.2-1.5c-0.8-0.4-1.5-0.8-2.2-1.2c-1.9-1.2-3.7-2.4-5.1-3.7c-4.5-4-6.7-8.6-6.7-13.2l0.2-9.6 c-0.1,4.6,2.2,9.2,6.8,13.3c1.4,1.3,3.1,2.5,5,3.6c0.7,0.4,1.5,0.9,2.3,1.3c14.5,7.4,35.8,8,51,1.5c1.5-0.6,2.9-1.3,4.2-2.1 c1.4-0.8,2.6-1.6,3.7-2.4C493.3,436.2,496.1,431.3,496.2,426.3z" fill="#bd8a17"/></g><g><linearGradient gradientTransform="matrix(.9999 .01297 -.01297 .9999 14.762 -7.381)" gradientUnits="userSpaceOnUse" id="l" x1="405.71" x2="486.98" xlink:actuate="onLoad" xlink:show="other" xlink:type="simple" xmlns:xlink="http://www.w3.org/1999/xlink" y1="427.299" y2="427.299"><stop offset="0" stop-color="#fdc54a"/><stop offset=".523" stop-color="#f4f2dc"/><stop offset="1" stop-color="#fdc54a"/></linearGradient><path d="M487.9,440.2 c-1.1,0.9-2.4,1.7-3.7,2.4c-1.4,0.8-2.8,1.5-4.3,2.1c-15.1,6.4-36.2,5.8-50.7-1.5c-0.9-0.4-1.7-0.9-2.5-1.4 c-2-1.2-3.7-2.4-5.1-3.7c-9.6-8.6-8.8-19.8,2.4-27.7c0.9-0.7,1.9-1.3,3-1.9c1.7-1,3.5-1.8,5.4-2.6c13.3-5.2,31-5.3,44.7-0.2 c2.6,1,5.1,2.1,7.4,3.5c0.5,0.3,1,0.6,1.5,0.9C498.9,418.9,499.6,431.5,487.9,440.2z" fill="url(#l)"/></g></g></g></g></g><g><path d="M476.2,416.4c-0.6-0.4-1.2-0.7-1.9-1l6-3.4l-2-1.2l-6.3,3.5c-10.2-4.2-22.7-3.7-32.4,1.7 c-10.4,5.8-10.5,12.8-3.3,18.3l-6,3.4l2,1.2l5.8-3.3c0.3,0.2,0.5,0.3,0.8,0.5c4.2,2.5,8.3,4,10.8,4.5l2.7-2.6 c-2.7-0.6-6-1.9-8.8-3.5c-0.6-0.4-1.2-0.7-1.7-1.1c-0.6-0.5-1.2-0.9-1.7-1.4c-4.7-4.4-3.1-9.3,4.2-13.4c7.6-4.3,16.2-4.8,23.5-2.2 c0.8,0.3,1.6,0.6,2.4,1c0.7,0.3,1.4,0.7,2.1,1.1c2.9,1.7,4.7,3.5,5.5,5l4.8-1.4C482.3,421.1,480.5,419,476.2,416.4z" fill="#fff"/></g></g></g></svg>